<svg width="1600" height="1200" viewBox="0 0 1600 1200" fill="none" xmlns="http://www.w3.org/2000/svg">
  <defs>
    <linearGradient id="g" x1="0" y1="0" x2="1" y2="1">
      <stop stop-color="white" stop-opacity="0.7"/>
      <stop offset="1" stop-color="#F3E4D3" stop-opacity="0.15"/>
    </linearGradient>
  </defs>
  <path d="M56 243C299 98 612 66 839 176C1048 277 1327 299 1548 149" stroke="url(#g)" stroke-width="3" stroke-linecap="round"/>
  <path d="M80 381C354 249 621 211 903 304C1120 375 1360 392 1518 316" stroke="url(#g)" stroke-width="2.5" stroke-linecap="round" opacity="0.75"/>
  <path d="M128 589C406 419 711 380 965 468C1186 544 1388 547 1533 486" stroke="url(#g)" stroke-width="2" stroke-linecap="round" opacity="0.62"/>
  <path d="M0 770C294 642 600 613 861 707C1127 803 1381 813 1600 726" stroke="url(#g)" stroke-width="2" stroke-linecap="round" opacity="0.5"/>
  <path d="M164 980C494 817 834 809 1071 900C1264 974 1433 971 1576 921" stroke="url(#g)" stroke-width="2" stroke-linecap="round" opacity="0.35"/>
</svg>
